<svg width="76" height="24" viewBox="0 0 76 24" fill="none" xmlns="http://www.w3.org/2000/svg">
<path d="M11.4977 23.6685C11.309 23.6685 11.1561 23.5158 11.1561 23.3275V14.4862C11.1561 13.2928 10.7798 12.3094 10.0272 11.5359C9.27463 10.7624 8.30068 10.3757 7.10538 10.3757C6.30852 10.3757 5.60019 10.5525 4.98041 10.9061C4.36062 11.2597 3.87365 11.7459 3.51949 12.3646C3.16533 12.9834 2.98825 13.6906 2.98825 14.4862L1.75974 13.7901C1.75974 12.5967 2.02537 11.5359 2.55661 10.6077C3.08785 9.67956 3.82938 8.95028 4.78119 8.41989C5.733 7.8674 6.80656 7.59116 8.00186 7.59116C9.19716 7.59116 10.2486 7.8895 11.1561 8.48619C12.0858 9.08287 12.8163 9.8674 13.3475 10.8398C13.8787 11.7901 14.1444 12.8066 14.1444 13.8895V23.3275C14.1444 23.5158 13.9914 23.6685 13.8028 23.6685H11.4977ZM0.341573 23.6685C0.152928 23.6685 0 23.5158 0 23.3275V8.26367C0 8.07533 0.152927 7.92265 0.341573 7.92265H2.64667C2.83532 7.92265 2.98825 8.07533 2.98825 8.26367V23.3275C2.98825 23.5158 2.83532 23.6685 2.64667 23.6685H0.341573Z" fill="black"/>
<path d="M24.7311 24C23.1816 24 21.7871 23.6354 20.5476 22.9061C19.308 22.1768 18.323 21.1934 17.5925 19.9558C16.8621 18.6961 16.4968 17.2928 16.4968 15.7459C16.4968 14.221 16.8621 12.8508 17.5925 11.6354C18.323 10.3978 19.308 9.41436 20.5476 8.68508C21.7871 7.9558 23.1816 7.59116 24.7311 7.59116C26.2584 7.59116 27.6419 7.9558 28.8814 8.68508C30.1431 9.39227 31.1392 10.3646 31.8697 11.6022C32.6001 12.8398 32.9654 14.221 32.9654 15.7459C32.9654 17.2928 32.6001 18.6961 31.8697 19.9558C31.1392 21.1934 30.1431 22.1768 28.8814 22.9061C27.6419 23.6354 26.2584 24 24.7311 24ZM24.7311 21.116C25.7272 21.116 26.6126 20.884 27.3873 20.4199C28.1621 19.9558 28.7708 19.326 29.2135 18.5304C29.6562 17.7127 29.8775 16.7845 29.8775 15.7459C29.8775 14.7293 29.6451 13.8232 29.1803 13.0276C28.7376 12.232 28.1288 11.6133 27.3541 11.1713C26.6015 10.7072 25.7272 10.4751 24.7311 10.4751C23.735 10.4751 22.8496 10.7072 22.0749 11.1713C21.3002 11.6133 20.6914 12.232 20.2487 13.0276C19.806 13.8232 19.5847 14.7293 19.5847 15.7459C19.5847 16.7845 19.806 17.7127 20.2487 18.5304C20.6914 19.326 21.3002 19.9558 22.0749 20.4199C22.8496 20.884 23.735 21.116 24.7311 21.116Z" fill="black"/>
<path d="M42.3752 24C40.9365 24 39.6305 23.6464 38.4573 22.9392C37.2842 22.2099 36.3545 21.2265 35.6683 19.9889C35.0042 18.7514 34.6722 17.3591 34.6722 15.8122C34.6722 14.2652 35.0042 12.8729 35.6683 11.6354C36.3545 10.3978 37.2731 9.41436 38.4241 8.68508C39.5973 7.9558 40.9143 7.59116 42.3752 7.59116C43.5705 7.59116 44.633 7.8453 45.5627 8.35359C46.5145 8.83978 47.2782 9.52486 47.8537 10.4088C48.4292 11.2707 48.7502 12.2762 48.8166 13.4254V18.1657C48.7502 19.2928 48.4292 20.2983 47.8537 21.1823C47.3003 22.0663 46.5477 22.7624 45.5959 23.2707C44.6662 23.7569 43.5927 24 42.3752 24ZM42.8733 21.1823C44.3563 21.1823 45.5516 20.6851 46.4592 19.6906C47.3667 18.674 47.8205 17.3812 47.8205 15.8122C47.8205 14.7293 47.6102 13.7901 47.1896 12.9945C46.7912 12.1768 46.2157 11.547 45.4631 11.105C44.7105 10.6409 43.8362 10.4088 42.8401 10.4088C41.844 10.4088 40.9586 10.6409 40.1839 11.105C39.4313 11.5691 38.8336 12.2099 38.3909 13.0276C37.9703 13.8232 37.7601 14.7403 37.7601 15.779C37.7601 16.8398 37.9703 17.779 38.3909 18.5967C38.8336 19.3923 39.4423 20.0221 40.2171 20.4862C40.9918 20.9503 41.8772 21.1823 42.8733 21.1823ZM47.9628 23.6685C47.7742 23.6685 47.6213 23.5158 47.6213 23.3275V19.4254L48.1857 15.5801L47.6213 11.768V8.26367C47.6213 8.07533 47.7742 7.92265 47.9628 7.92265H50.3011C50.4898 7.92265 50.6427 8.07533 50.6427 8.26367V23.3275C50.6427 23.5158 50.4898 23.6685 50.3011 23.6685H47.9628Z" fill="black"/>
<path d="M54.6708 23.6685C54.4822 23.6685 54.3293 23.5158 54.3293 23.3275V0.341023C54.3293 0.152681 54.4822 0 54.6708 0H56.9759C57.1646 0 57.3175 0.152681 57.3175 0.341022V23.3275C57.3175 23.5158 57.1646 23.6685 56.9759 23.6685H54.6708Z" fill="black"/>
<path d="M67.7325 24C66.2937 24 64.9878 23.6464 63.8146 22.9392C62.6414 22.2099 61.7118 21.2265 61.0256 19.9889C60.3615 18.7514 60.0295 17.3591 60.0295 15.8122C60.0295 14.2652 60.3615 12.8729 61.0256 11.6354C61.7118 10.3978 62.6304 9.41436 63.7814 8.68508C64.9546 7.9558 66.2716 7.59116 67.7325 7.59116C68.9278 7.59116 69.9903 7.8453 70.92 8.35359C71.8718 8.83978 72.6355 9.52486 73.211 10.4088C73.7865 11.2707 74.1074 12.2762 74.1739 13.4254V18.1657C74.1074 19.2928 73.7865 20.2983 73.211 21.1823C72.6576 22.0663 71.905 22.7624 70.9532 23.2707C70.0235 23.7569 68.95 24 67.7325 24ZM68.2306 21.1823C69.7136 21.1823 70.9089 20.6851 71.8165 19.6906C72.724 18.674 73.1778 17.3812 73.1778 15.8122C73.1778 14.7293 72.9675 13.7901 72.5469 12.9945C72.1485 12.1768 71.573 11.547 70.8204 11.105C70.0678 10.6409 69.1934 10.4088 68.1974 10.4088C67.2013 10.4088 66.3159 10.6409 65.5411 11.105C64.7885 11.5691 64.1909 12.2099 63.7482 13.0276C63.3276 13.8232 63.1173 14.7403 63.1173 15.779C63.1173 16.8398 63.3276 17.779 63.7482 18.5967C64.1909 19.3923 64.7996 20.0221 65.5743 20.4862C66.3491 20.9503 67.2345 21.1823 68.2306 21.1823ZM73.3201 23.6685C73.1315 23.6685 72.9786 23.5158 72.9786 23.3275V19.4254L73.543 15.5801L72.9786 11.768V8.26367C72.9786 8.07533 73.1315 7.92265 73.3201 7.92265H75.6584C75.8471 7.92265 76 8.07533 76 8.26367V23.3275C76 23.5158 75.8471 23.6685 75.6584 23.6685H73.3201Z" fill="black"/>
</svg>
